#!OML:ASF F:\VICON\USERDATA\INSTALL\rory3\rory3.ASF
:FULLY-SPECIFIED
:DEGREES
230
root 3.44065 16.1608 -4.81168 12.1525 33.5503 -2.24044
lowerback -6.96716 -1.42323 -1.2171
upperback -5.4775 -1.70654 6.05725
thorax -1.5578 -0.682294 6.9162
lowerneck -3.53303 -6.98711 -5.25908
upperneck 27.3297 -8.73608 -0.79743
head 9.38482 -4.57396 -0.160451
rclavicle 1.2424e-014 -9.54166e-015
rhumerus 55.5324 11.5256 -89.9438
rradius 41.1572
rwrist -74.6485
rhand -6.03253 -4.56857
rfingers 7.12502
rthumb 19.8011 -33.5799
lclavicle 1.2424e-014 -9.54166e-015
lhumerus 63.7969 -4.39948 96.0476
lradius 51.0371
lwrist 64.342
lhand 23.7023 24.8572
lfingers 7.12502
lthumb 47.9672 47.0853
rfemur -59.1052 18.5948 -6.04875
rtibia 42.5163
rfoot -51.517 -0.584495
rtoes 60.4266
lfemur -35.9384 -8.17611 -27.5403
ltibia 47.4329
lfoot -24.5343 10.7133
ltoes -11.7818
231
root 3.43192 16.1481 -4.83327 12.4629 32.7841 -1.95253
lowerback -6.66475 -1.40305 -1.17307
upperback -5.59497 -1.67562 5.8671
thorax -1.8574 -0.664385 6.69796
lowerneck -3.9514 -6.80283 -5.28772
upperneck 27.54 -8.43612 -0.886065
head 9.528 -4.4472 -0.179195
rclavicle 3.23646e-014 0
rhumerus 54.7449 9.45969 -93.295
rradius 38.4611
rwrist -73.4971
rhand -6.32521 -4.36912
rfingers 7.12502
rthumb 19.5197 -33.4093
lclavicle 3.23646e-014 0
lhumerus 62.1031 -3.18539 97.6811
lradius 50.2914
lwrist 64.6991
lhand 22.9937 23.8391
lfingers 7.12502
lthumb 47.3131 46.3662
rfemur -58.7934 20.1136 -8.77102
rtibia 42.4677
rfoot -56.0351 2.82463
rtoes 60.6338
lfemur -36.2601 -7.92741 -27.8924
ltibia 47.7408
lfoot -24.9302 10.9779
ltoes -9.96465
232
root 3.42373 16.1301 -4.8679 12.8312 31.7185 -1.90691
lowerback -6.1689 -1.30568 -0.921738
upperback -5.95153 -1.52961 5.81032
thorax -2.53145 -0.579354 6.51998
lowerneck -4.38115 -6.48173 -5.23723
upperneck 27.9024 -7.86267 -1.3107
head 9.70438 -4.22083 -0.301164
rclavicle -2.45126e-014 4.13472e-014
rhumerus 53.9817 6.66983 -98.2675
rradius 34.951
rwrist -70.5333
rhand -5.64578 -4.28311
rfingers 7.12502
rthumb 20.1728 -33.2557
lclavicle -2.45126e-014 4.13472e-014
lhumerus 60.2928 -1.62728 99.0893
lradius 49.4344
lwrist 64.7491
lhand 22.5276 22.7552
lfingers 7.12502
lthumb 46.882 45.4732
rfemur -58.8135 21.77 -11.3238
rtibia 42.4239
rfoot -60.9555 5.84743
rtoes 60.7509
lfemur -36.865 -7.57686 -28.0355
ltibia 48.0272
lfoot -25.3618 11.34
ltoes -7.74584
233
root 3.41437 16.1243 -4.90473 13.0617 30.6177 -1.94957
lowerback -6.05586 -0.712873 -0.819862
upperback -6.20496 -0.731229 5.43048
thorax -2.95948 -0.175373 6.09728
lowerneck -3.62505 -6.66077 -4.40695
upperneck 27.5566 -8.19538 -1.57227
head 9.38679 -4.32083 -0.518107
rclavicle 1.36913e-014 -1.90833e-014
rhumerus 53.7312 3.72592 -98.5301
rradius 33.5138
rwrist -71.8341
rhand -7.48058 -4.39358
rfingers 7.12502
rthumb 18.4086 -33.5425
lclavicle 1.36913e-014 -1.90833e-014
lhumerus 58.3515 -1.52114 100.244
lradius 48.6277
lwrist 65.1443
lhand 21.5473 21.8731
lfingers 7.12502
lthumb 45.9737 44.9786
rfemur -59.2962 23.6056 -13.5188
rtibia 42.3613
rfoot -66.2544 7.1586
rtoes 60.7213
lfemur -37.3664 -7.13042 -28.0915
ltibia 48.2226
lfoot -25.7583 11.6887
ltoes -6.32193
234
root 3.41225 16.1208 -4.93989 13.3286 29.7679 -1.97314
lowerback -6.193 -0.377093 -0.58506
upperback -6.21855 -0.298379 5.18194
thorax -2.94517 0.0275712 5.71356
lowerneck -3.59376 -6.69953 -4.20375
upperneck 27.3995 -8.29495 -1.51065
head 9.31768 -4.3423 -0.534217
rclavicle -5.88154e-014 3.18055e-014
rhumerus 54.1772 0.265621 -101.157
rradius 30.9303
rwrist -70.5279
rhand -8.49065 -3.76291
rfingers 7.12502
rthumb 17.4367 -33.0009
lclavicle -5.88154e-014 3.18055e-014
lhumerus 57.1082 -0.712351 101.213
lradius 47.6033
lwrist 65.027
lhand 20.3105 21.7846
lfingers 7.12502
lthumb 44.8242 45.3531
rfemur -59.529 25.2546 -15.6049
rtibia 42.2377
rfoot -70.9255 8.20537
rtoes 60.7549
lfemur -37.8582 -6.80945 -28.154
ltibia 48.3969
lfoot -26.0072 11.9443
ltoes -5.2491
